# xmcd
#
# Track frame offsets:
#	150
#	16082
#	31290
#	44882
#	60327
#	79600
#	99087
#	118932
#	131440
#	147127
#	171102
#	183155
#
# Disc length: 2803
#
# Revision: 6
# Processed by: cddbd v1.5.1PL0 Copyright (c) Steve Scherf et al.
# Submitted via: EasyCDDAExtractor 4.5.0.2
# Normalized: r5:TRMNUM
#
DISCID=920af10c
DTITLE=Bersuit Vergarabat - Libertinaje
DYEAR=1998
DGENRE=
TTITLE0=Yo tomo
TTITLE1=A los tambores
TTITLE2=De onda
TTITLE3=Se viene
TTITLE4=Murguita del sur
TTITLE5=Sr. Cobranza
TTITLE6=Vuelos
TTITLE7=Gente de mierdas
TTITLE8=Sincerebro
TTITLE9=A marça de Deux
TTITLE10=C. S. M.
TTITLE11=Qué pasó?
EXTD=
EXTT0=
EXTT1=
EXTT2=
EXTT3=
EXTT4=
EXTT5=
EXTT6=
EXTT7=
EXTT8=
EXTT9=
EXTT10=
EXTT11=
PLAYORDER=
